<mxfile host="app.diagrams.net" modified="2023-06-27T08:14:20.149Z" agent="Mozilla/5.0 (Windows NT 10.0; Win64; x64; rv:109.0) Gecko/20100101 Firefox/114.0" etag="YcIKJvqXMyRferFyATnb" version="21.3.6" type="github">
  <diagram id="R2lEEEUBdFMjLlhIrx00" name="Page-1">
    <mxGraphModel dx="1434" dy="1381" grid="1" gridSize="10" guides="1" tooltips="1" connect="1" arrows="1" fold="1" page="1" pageScale="1" pageWidth="850" pageHeight="1100" math="0" shadow="0" extFonts="Permanent Marker^https://fonts.googleapis.com/css?family=Permanent+Marker">
      <root>
        <mxCell id="0" />
        <mxCell id="1" parent="0" />
        <mxCell id="BdF7QK49ZLqWLLvlv21J-3" style="edgeStyle=orthogonalEdgeStyle;rounded=0;orthogonalLoop=1;jettySize=auto;html=1;entryX=0;entryY=0.5;entryDx=0;entryDy=0;" edge="1" parent="1" source="BdF7QK49ZLqWLLvlv21J-1" target="BdF7QK49ZLqWLLvlv21J-2">
          <mxGeometry relative="1" as="geometry" />
        </mxCell>
        <mxCell id="BdF7QK49ZLqWLLvlv21J-1" value="User" style="shape=umlActor;verticalLabelPosition=bottom;verticalAlign=top;html=1;outlineConnect=0;" vertex="1" parent="1">
          <mxGeometry x="90" y="220" width="30" height="60" as="geometry" />
        </mxCell>
        <mxCell id="BdF7QK49ZLqWLLvlv21J-5" value="" style="edgeStyle=orthogonalEdgeStyle;rounded=0;orthogonalLoop=1;jettySize=auto;html=1;" edge="1" parent="1" source="BdF7QK49ZLqWLLvlv21J-2" target="BdF7QK49ZLqWLLvlv21J-4">
          <mxGeometry relative="1" as="geometry" />
        </mxCell>
        <mxCell id="BdF7QK49ZLqWLLvlv21J-2" value="Game , App, Web&lt;span style=&quot;white-space: pre;&quot;&gt;&#x9;&lt;/span&gt;" style="rounded=1;whiteSpace=wrap;html=1;" vertex="1" parent="1">
          <mxGeometry x="240" y="220" width="120" height="60" as="geometry" />
        </mxCell>
        <mxCell id="BdF7QK49ZLqWLLvlv21J-10" style="edgeStyle=orthogonalEdgeStyle;rounded=0;orthogonalLoop=1;jettySize=auto;html=1;" edge="1" parent="1" source="BdF7QK49ZLqWLLvlv21J-4" target="BdF7QK49ZLqWLLvlv21J-6">
          <mxGeometry relative="1" as="geometry" />
        </mxCell>
        <mxCell id="BdF7QK49ZLqWLLvlv21J-11" style="edgeStyle=orthogonalEdgeStyle;rounded=0;orthogonalLoop=1;jettySize=auto;html=1;entryX=0;entryY=0.25;entryDx=0;entryDy=0;" edge="1" parent="1" source="BdF7QK49ZLqWLLvlv21J-4" target="BdF7QK49ZLqWLLvlv21J-8">
          <mxGeometry relative="1" as="geometry" />
        </mxCell>
        <mxCell id="BdF7QK49ZLqWLLvlv21J-13" value="" style="edgeStyle=orthogonalEdgeStyle;rounded=0;orthogonalLoop=1;jettySize=auto;html=1;" edge="1" parent="1" source="BdF7QK49ZLqWLLvlv21J-4" target="BdF7QK49ZLqWLLvlv21J-7">
          <mxGeometry relative="1" as="geometry" />
        </mxCell>
        <mxCell id="BdF7QK49ZLqWLLvlv21J-14" value="" style="edgeStyle=orthogonalEdgeStyle;rounded=0;orthogonalLoop=1;jettySize=auto;html=1;" edge="1" parent="1" source="BdF7QK49ZLqWLLvlv21J-4" target="BdF7QK49ZLqWLLvlv21J-2">
          <mxGeometry relative="1" as="geometry" />
        </mxCell>
        <mxCell id="BdF7QK49ZLqWLLvlv21J-4" value="AutoBank Gateway" style="rounded=1;whiteSpace=wrap;html=1;" vertex="1" parent="1">
          <mxGeometry x="470" y="220" width="120" height="60" as="geometry" />
        </mxCell>
        <mxCell id="BdF7QK49ZLqWLLvlv21J-6" value="Auto In Sync" style="rounded=1;whiteSpace=wrap;html=1;" vertex="1" parent="1">
          <mxGeometry x="640" y="160" width="120" height="60" as="geometry" />
        </mxCell>
        <mxCell id="BdF7QK49ZLqWLLvlv21J-8" value="Auto Out" style="rounded=1;whiteSpace=wrap;html=1;" vertex="1" parent="1">
          <mxGeometry x="640" y="295" width="120" height="60" as="geometry" />
        </mxCell>
        <mxCell id="BdF7QK49ZLqWLLvlv21J-9" value="Auto Banking" style="swimlane;startSize=0;" vertex="1" parent="1">
          <mxGeometry x="430" y="130" width="380" height="300" as="geometry" />
        </mxCell>
        <mxCell id="BdF7QK49ZLqWLLvlv21J-7" value="Db" style="shape=cylinder3;whiteSpace=wrap;html=1;boundedLbl=1;backgroundOutline=1;size=15;" vertex="1" parent="BdF7QK49ZLqWLLvlv21J-9">
          <mxGeometry x="75" y="170" width="50" height="70" as="geometry" />
        </mxCell>
      </root>
    </mxGraphModel>
  </diagram>
</mxfile>
